<svg width="35" height="36" viewBox="0 0 35 36" fill="none" xmlns="http://www.w3.org/2000/svg">
<path d="M0 5C0 2.23858 2.23858 0 5 0H30C32.7614 0 35 2.23858 35 5V31C35 33.7614 32.7614 36 30 36H5C2.23858 36 0 33.7614 0 31V5Z" fill="black"/>
<path d="M4.66667 31V6H12.5C14.1667 6 15.4907 6.32407 16.4722 6.97222C17.4722 7.60185 18.1852 8.37037 18.6111 9.27778C19.037 10.1667 19.25 11.0185 19.25 11.8333C19.25 12.5556 19.1111 13.2407 18.8333 13.8889C18.5556 14.5185 18.1667 15.0741 17.6667 15.5556C18.4444 16.037 19.1204 16.6296 19.6944 17.3333C20.2685 18.0185 20.713 18.7963 21.0278 19.6667C21.3426 20.5185 21.5 21.4352 21.5 22.4167C21.5 23.4907 21.2963 24.537 20.8889 25.5556C20.5 26.5741 19.9074 27.5 19.1111 28.3333C18.3333 29.1481 17.3611 29.7963 16.1944 30.2778C15.0463 30.7593 13.7037 31 12.1667 31H4.66667ZM9.5 26.5H11.6667C12.7778 26.5 13.6667 26.287 14.3333 25.8611C15.0185 25.4167 15.5093 24.8704 15.8056 24.2222C16.1204 23.5556 16.2778 22.8981 16.2778 22.25C16.2778 21.6204 16.1296 20.9815 15.8333 20.3333C15.537 19.6667 15.0463 19.1111 14.3611 18.6667C13.6944 18.2222 12.7963 18 11.6667 18H9.5V26.5ZM9.5 14.5H11.6667C12.2593 14.5 12.7685 14.4074 13.1944 14.2222C13.6389 14.037 13.9815 13.7685 14.2222 13.4167C14.463 13.0648 14.5833 12.6296 14.5833 12.1111C14.5833 11.5741 14.463 11.1296 14.2222 10.7778C13.9815 10.4074 13.6481 10.1296 13.2222 9.94444C12.8148 9.75926 12.3333 9.66667 11.7778 9.66667H9.5V14.5Z" fill="white"/>
<path d="M31.0002 27C31.0002 29.2091 29.2094 31 27.0002 31C24.7911 31 23.0002 29.2091 23.0002 27C23.0002 24.7909 24.7911 23 27.0002 23C29.2094 23 31.0002 24.7909 31.0002 27Z" fill="#008CFF"/>
</svg>
